<?xml version="1.0" standalone="no"?>
<!DOCTYPE svg PUBLIC "-//W3C//DTD SVG 20010904//EN"
 "http://www.w3.org/TR/2001/REC-SVG-20010904/DTD/svg10.dtd">
<svg version="1.0" xmlns="http://www.w3.org/2000/svg"
 width="260.000000pt" height="260.000000pt" viewBox="0 0 260.000000 260.000000"
 preserveAspectRatio="xMidYMid meet">
<metadata>
Created by potrace 1.11, written by Peter Selinger 2001-2013
</metadata>
<g transform="translate(0.000000,260.000000) scale(0.100000,-0.100000)"
fill="#000000" stroke="none">
<path d="M610 1300 l0 -1090 690 0 690 0 0 175 0 175 -505 0 -505 0 0 915 0
915 -185 0 -185 0 0 -1090z"/>
<path d="M1525 2373 c-68 -25 -109 -55 -146 -110 -44 -64 -59 -121 -59 -229 0
-125 24 -191 95 -260 69 -68 127 -88 244 -82 136 6 213 57 270 178 23 49 26
67 26 170 0 103 -3 121 -26 171 -32 68 -87 125 -148 152 -65 29 -189 34 -256
10z m204 -151 c65 -48 94 -142 73 -239 -19 -94 -68 -143 -149 -150 -66 -6
-129 27 -157 82 -25 48 -33 158 -16 209 15 47 56 95 95 113 39 17 121 10 154
-15z"/>
<path d="M1729 1501 c-44 -14 -73 -32 -111 -69 l-38 -36 0 52 0 52 -140 0
-140 0 0 -70 0 -70 70 0 70 0 0 -205 0 -205 -70 0 -70 0 0 -65 0 -65 240 0
240 0 0 65 0 64 -92 3 -93 3 0 140 c0 122 3 145 21 180 25 49 83 83 153 92
l51 6 0 -72 0 -71 75 0 75 0 0 123 0 124 -27 13 c-33 15 -177 23 -214 11z"/>
</g>
</svg>
